<?xml version="1.0" encoding="UTF-8"?>
<svg id="Layer_1" xmlns="http://www.w3.org/2000/svg" version="1.1" viewBox="0 0 612 792">
  <!-- Generator: Adobe Illustrator 29.4.0, SVG Export Plug-In . SVG Version: 2.1.0 Build 152)  -->
  <defs>
    <style>
      .st0 {
        stroke: #231f20;
        stroke-linecap: round;
        stroke-linejoin: round;
        stroke-width: 4.7px;
      }

      .st0, .st1 {
        fill: #231f20;
      }
    </style>
  </defs>
  <path class="st1" d="M266,269.5c-16-47.9,25-73.8,40.5-86.7,24.5-20.4,67.4,40.1,70.2,52.3.7,3.3,1.1,4.1,1.4,9.5,1.4,28.5-12.8,49.9-39.7,59.6-31.6,11.3-63.6-8.7-72.3-34.7ZM331.8,247.3c-12.6-34.7-18.8-45.5-25.8-43.5s-3.8,20.4,7.8,52.8c13,36,19.4,45.1,26.2,42.4,7.7-3.1,4.3-17.2-8.2-51.6ZM320.4,166.5l25.1,26.4c.3.7,0,1.4-.8,1.4l-52.2-.2,26.5-27.5c.3-.3.9-.3,1.4-.2Z"/>
  <path class="st1" d="M179.1,668.3c-41.1-123.2,64.3-189.8,104.1-223.1,62.9-52.6,173.5,103.1,180.4,134.6,1.9,8.5,2.8,10.5,3.5,24.5,3.5,73.4-32.9,128.4-102.1,153.2-81.3,29.1-163.6-22.3-185.9-89.2ZM348.3,611.3c-32.3-89.2-48.3-117-66.4-111.9s-9.9,52.6,20.1,135.8c33.3,92.6,49.9,115.9,67.3,109,19.7-7.9,11.2-44.2-21-132.8ZM319,403.5l64.6,67.8c.7,1.7-.2,3.7-2,3.7l-134.3-.4,68.2-70.7c.8-.8,2.2-.8,3.5-.4Z"/>
  <path class="st0" d="M127,280.5c4,6.7,5.8,14,15.7,17.1v1.2h-59.3v-1.2c5-1.9,5-6.9,3.1-10.5l-19.9-34.5-3.5,3.8v23.6c0,7.1,1.9,15.7,6.7,17.6v1.2H16v-1.2c4.8-1.9,6.7-10.5,6.7-17.6v-97.2c0-8.8-3.1-14.6-10.4-20.1v-1.3c9-2.3,36.2-10.2,49.9-14h1v105.1l35.9-37.8c4.4-4.8,3.1-13.8-4.4-16.7v-1.2h30.5v1.2c-9,3.6-14.8,8.4-22.6,16.7l-9,9.6,33.6,56.4Z"/>
  <path class="st0" d="M252.3,280c0,7.1,1.9,15.7,6.7,17.6v1.2h-54.1v-1.2c4.8-1.9,6.7-9.8,6.7-17.6v-53.1c0-14.8-5.4-19.8-11.1-19.8s-6.7,1.2-9.8,3.5v69.4c0,7.1,1.9,15.7,6.7,17.6v1.2h-54.1v-1.2c4.8-1.9,6.7-9.8,6.7-17.6v-50.2c0-9-3.1-14.6-10.2-20.3v-1.2c8.8-2.3,34.7-10.2,48.3-14h1.1v15.2c7.9-10.5,19.8-16.7,33.2-16.7,24.9,0,29.7,22.2,29.7,41.8v45.4Z"/>
  <path class="st0" d="M498.1,247c0,31.1-20.1,53.1-45.4,53.1s-16.7-1.5-23.2-7.1v24.9c0,7.1,1.9,15.7,6.7,17.6v1.2h-54.1v-1.2c4.8-1.9,6.7-9.8,6.7-17.6v-88.2c0-9-3.1-14.6-10.2-20.3v-1.2c8.8-2.3,35.1-10.2,48.7-14h1v18.4c7.1-12.3,17.3-19.8,32.2-19.8s37.6,17.3,37.6,54.1ZM454.9,251.8c0-29.9-5-44.7-14-44.7s-7.9,2.7-11.5,7.1v75.4c2.1,1.9,3.6,2.7,5.6,2.7,13.4,0,19.9-10.9,19.9-40.5Z"/>
  <path class="st0" d="M600,235.5v3.5h-59.8c.6,22.2,9.8,42.6,31.4,42.6s16.1-1,25.9-11.9l.8,1c-8.4,15.3-16.7,29.5-45.8,29.5s-55.4-20.7-55.4-53.9,21.1-53.5,54.5-53.5,48.5,21.7,48.5,42.8ZM563.9,236.8v-.4c0-29.5-2.7-41.2-11.5-41.2s-12.3,12.3-12.3,41.2v.2l23.8.2Z"/>
</svg>